<svg width="387" height="48" viewBox="0 0 387 48" fill="none" xmlns="http://www.w3.org/2000/svg">
<path d="M11.9318 39.4545C9.88636 39.4545 8.125 38.9716 6.64773 38.0057C5.17045 37.0398 4.03409 35.7093 3.23864 34.0142C2.44318 32.3191 2.04545 30.3826 2.04545 28.2045C2.04545 25.9886 2.45265 24.0331 3.26705 22.3381C4.09091 20.6335 5.23674 19.303 6.70455 18.3466C8.18182 17.3807 9.9053 16.8977 11.875 16.8977C13.4091 16.8977 14.7917 17.1818 16.0227 17.75C17.2538 18.3182 18.2623 19.1136 19.0483 20.1364C19.8343 21.1591 20.322 22.3523 20.5114 23.7159H17.1591C16.9034 22.7216 16.3352 21.8409 15.4545 21.0739C14.5833 20.2973 13.4091 19.9091 11.9318 19.9091C10.625 19.9091 9.47917 20.25 8.49432 20.9318C7.51894 21.6042 6.75663 22.5559 6.20739 23.7869C5.66761 25.0085 5.39773 26.4432 5.39773 28.0909C5.39773 29.7765 5.66288 31.2443 6.19318 32.4943C6.73295 33.7443 7.49053 34.715 8.46591 35.4062C9.45076 36.0975 10.6061 36.4432 11.9318 36.4432C12.803 36.4432 13.5938 36.2917 14.304 35.9886C15.0142 35.6856 15.6155 35.25 16.108 34.6818C16.6004 34.1136 16.9508 33.4318 17.1591 32.6364H20.5114C20.322 33.9242 19.8532 35.0843 19.1051 36.1165C18.3665 37.1392 17.3864 37.9536 16.1648 38.5597C14.9527 39.1562 13.5417 39.4545 11.9318 39.4545ZM34.2756 39.4545C32.3059 39.4545 30.5777 38.9858 29.0909 38.0483C27.6136 37.1108 26.4583 35.7992 25.625 34.1136C24.8011 32.428 24.3892 30.4583 24.3892 28.2045C24.3892 25.9318 24.8011 23.9479 25.625 22.2528C26.4583 20.5578 27.6136 19.2415 29.0909 18.304C30.5777 17.3665 32.3059 16.8977 34.2756 16.8977C36.2453 16.8977 37.9688 17.3665 39.446 18.304C40.9328 19.2415 42.0881 20.5578 42.9119 22.2528C43.7453 23.9479 44.1619 25.9318 44.1619 28.2045C44.1619 30.4583 43.7453 32.428 42.9119 34.1136C42.0881 35.7992 40.9328 37.1108 39.446 38.0483C37.9688 38.9858 36.2453 39.4545 34.2756 39.4545ZM34.2756 36.4432C35.7718 36.4432 37.0028 36.0597 37.9688 35.2926C38.9347 34.5256 39.6496 33.517 40.1136 32.267C40.5777 31.017 40.8097 29.6629 40.8097 28.2045C40.8097 26.7462 40.5777 25.3873 40.1136 24.1278C39.6496 22.8684 38.9347 21.8504 37.9688 21.0739C37.0028 20.2973 35.7718 19.9091 34.2756 19.9091C32.7794 19.9091 31.5483 20.2973 30.5824 21.0739C29.6165 21.8504 28.9015 22.8684 28.4375 24.1278C27.9735 25.3873 27.7415 26.7462 27.7415 28.2045C27.7415 29.6629 27.9735 31.017 28.4375 32.267C28.9015 33.517 29.6165 34.5256 30.5824 35.2926C31.5483 36.0597 32.7794 36.4432 34.2756 36.4432ZM57.5178 39.4545C55.6996 39.4545 54.0945 38.9953 52.7024 38.0767C51.3104 37.1487 50.2214 35.8419 49.4354 34.1562C48.6494 32.4612 48.2564 30.4583 48.2564 28.1477C48.2564 25.8561 48.6494 23.8674 49.4354 22.1818C50.2214 20.4962 51.3151 19.1941 52.7166 18.2756C54.1181 17.357 55.7375 16.8977 57.5746 16.8977C58.995 16.8977 60.1172 17.1345 60.9411 17.608C61.7744 18.072 62.4089 18.6023 62.8445 19.1989C63.2895 19.786 63.6352 20.2689 63.8814 20.6477H64.1655V9.90909H67.5178V39H64.2791V35.6477H63.8814C63.6352 36.0455 63.2848 36.5473 62.8303 37.1534C62.3757 37.75 61.727 38.285 60.8842 38.7585C60.0414 39.2225 58.9193 39.4545 57.5178 39.4545ZM57.9723 36.4432C59.317 36.4432 60.4534 36.0928 61.3814 35.392C62.3094 34.6818 63.0149 33.7017 63.4979 32.4517C63.9808 31.1922 64.2223 29.7386 64.2223 28.0909C64.2223 26.4621 63.9856 25.0369 63.5121 23.8153C63.0386 22.5843 62.3378 21.6278 61.4098 20.946C60.4818 20.2547 59.3359 19.9091 57.9723 19.9091C56.5518 19.9091 55.3681 20.2737 54.4212 21.0028C53.4837 21.7225 52.7782 22.7027 52.3047 23.9432C51.8407 25.1742 51.6087 26.5568 51.6087 28.0909C51.6087 29.6439 51.8454 31.0549 52.3189 32.3239C52.8018 33.5833 53.5121 34.5871 54.4496 35.3352C55.3965 36.0739 56.5708 36.4432 57.9723 36.4432ZM83.2706 39.4545C81.1683 39.4545 79.3549 38.9905 77.8303 38.0625C76.3151 37.125 75.1456 35.8182 74.3217 34.142C73.5073 32.4564 73.1001 30.4962 73.1001 28.2614C73.1001 26.0265 73.5073 24.0568 74.3217 22.3523C75.1456 20.6383 76.2914 19.303 77.7592 18.3466C79.2365 17.3807 80.96 16.8977 82.9297 16.8977C84.0661 16.8977 85.1882 17.0871 86.2962 17.4659C87.4041 17.8447 88.4126 18.4602 89.3217 19.3125C90.2308 20.1553 90.9553 21.2727 91.495 22.6648C92.0348 24.0568 92.3047 25.7708 92.3047 27.8068V29.2273H75.4865V26.3295H88.8956C88.8956 25.0985 88.6494 24 88.157 23.0341C87.674 22.0682 86.9827 21.3059 86.0831 20.7472C85.1929 20.1884 84.1418 19.9091 82.9297 19.9091C81.5945 19.9091 80.4392 20.2405 79.4638 20.9034C78.4979 21.5568 77.7545 22.4091 77.2337 23.4602C76.7128 24.5114 76.4524 25.6383 76.4524 26.8409V28.7727C76.4524 30.4205 76.7365 31.8172 77.3047 32.9631C77.8823 34.0994 78.6825 34.9659 79.7053 35.5625C80.728 36.1496 81.9164 36.4432 83.2706 36.4432C84.1513 36.4432 84.9467 36.3201 85.657 36.0739C86.3767 35.8182 86.9969 35.4394 87.5178 34.9375C88.0386 34.4261 88.4411 33.7917 88.7251 33.0341L91.9638 33.9432C91.6229 35.0417 91.05 36.0076 90.245 36.8409C89.4401 37.6648 88.4458 38.3087 87.2621 38.7727C86.0784 39.2273 84.7479 39.4545 83.2706 39.4545ZM118.37 17.1818V20.0227H106.609V17.1818H118.37ZM110.131 39V14.1705C110.131 12.9205 110.425 11.8788 111.012 11.0455C111.599 10.2121 112.362 9.58712 113.299 9.17045C114.237 8.75379 115.226 8.54545 116.268 8.54545C117.092 8.54545 117.764 8.61174 118.285 8.74432C118.806 8.87689 119.194 9 119.45 9.11364L118.484 12.0114C118.313 11.9545 118.076 11.8835 117.773 11.7983C117.48 11.7131 117.092 11.6705 116.609 11.6705C115.501 11.6705 114.701 11.9498 114.208 12.5085C113.725 13.0672 113.484 13.8864 113.484 14.9659V39H110.131ZM131.033 39.4545C129.064 39.4545 127.335 38.9858 125.849 38.0483C124.371 37.1108 123.216 35.7992 122.383 34.1136C121.559 32.428 121.147 30.4583 121.147 28.2045C121.147 25.9318 121.559 23.9479 122.383 22.2528C123.216 20.5578 124.371 19.2415 125.849 18.304C127.335 17.3665 129.064 16.8977 131.033 16.8977C133.003 16.8977 134.727 17.3665 136.204 18.304C137.691 19.2415 138.846 20.5578 139.67 22.2528C140.503 23.9479 140.92 25.9318 140.92 28.2045C140.92 30.4583 140.503 32.428 139.67 34.1136C138.846 35.7992 137.691 37.1108 136.204 38.0483C134.727 38.9858 133.003 39.4545 131.033 39.4545ZM131.033 36.4432C132.53 36.4432 133.761 36.0597 134.727 35.2926C135.692 34.5256 136.407 33.517 136.871 32.267C137.335 31.017 137.567 29.6629 137.567 28.2045C137.567 26.7462 137.335 25.3873 136.871 24.1278C136.407 22.8684 135.692 21.8504 134.727 21.0739C133.761 20.2973 132.53 19.9091 131.033 19.9091C129.537 19.9091 128.306 20.2973 127.34 21.0739C126.374 21.8504 125.659 22.8684 125.195 24.1278C124.731 25.3873 124.499 26.7462 124.499 28.2045C124.499 29.6629 124.731 31.017 125.195 32.267C125.659 33.517 126.374 34.5256 127.34 35.2926C128.306 36.0597 129.537 36.4432 131.033 36.4432ZM146.037 39V17.1818H149.276V20.4773H149.503C149.901 19.3977 150.62 18.5218 151.662 17.8494C152.704 17.1771 153.878 16.8409 155.185 16.8409C155.431 16.8409 155.739 16.8456 156.108 16.8551C156.477 16.8646 156.757 16.8788 156.946 16.8977V20.3068C156.832 20.2784 156.572 20.2358 156.165 20.179C155.767 20.1127 155.346 20.0795 154.901 20.0795C153.84 20.0795 152.893 20.3021 152.06 20.7472C151.236 21.1828 150.582 21.7888 150.099 22.5653C149.626 23.3324 149.389 24.2083 149.389 25.1932V39H146.037Z" fill="#0D5285"/>
<path d="M174.034 28.7727V26.5L192.33 17.1818V20.8182L178.295 27.5795L178.409 27.3523V27.9205L178.295 27.6932L192.33 34.4545V38.0909L174.034 28.7727ZM208.242 47.6364C206.623 47.6364 205.231 47.428 204.066 47.0114C202.901 46.6042 201.931 46.0644 201.154 45.392C200.387 44.7292 199.776 44.0189 199.322 43.2614L201.992 41.3864C202.295 41.7841 202.679 42.2386 203.143 42.75C203.607 43.2708 204.241 43.7206 205.046 44.0994C205.861 44.4877 206.926 44.6818 208.242 44.6818C210.004 44.6818 211.457 44.2557 212.603 43.4034C213.749 42.5511 214.322 41.2159 214.322 39.3977V34.9659H214.038C213.791 35.3636 213.441 35.8561 212.987 36.4432C212.541 37.0208 211.897 37.5369 211.055 37.9915C210.221 38.4366 209.094 38.6591 207.674 38.6591C205.913 38.6591 204.331 38.2424 202.93 37.4091C201.538 36.5758 200.434 35.3636 199.62 33.7727C198.815 32.1818 198.413 30.25 198.413 27.9773C198.413 25.7424 198.806 23.7964 199.592 22.1392C200.378 20.4725 201.471 19.1847 202.873 18.2756C204.274 17.357 205.894 16.8977 207.731 16.8977C209.151 16.8977 210.278 17.1345 211.112 17.608C211.954 18.072 212.598 18.6023 213.043 19.1989C213.498 19.786 213.848 20.2689 214.094 20.6477H214.435V17.1818H217.674V39.625C217.674 41.5 217.248 43.0246 216.396 44.1989C215.553 45.3826 214.416 46.2491 212.987 46.7983C211.566 47.357 209.985 47.6364 208.242 47.6364ZM208.129 35.6477C209.473 35.6477 210.61 35.34 211.538 34.7244C212.466 34.1089 213.171 33.2235 213.654 32.0682C214.137 30.9129 214.379 29.5303 214.379 27.9205C214.379 26.3485 214.142 24.9612 213.668 23.7585C213.195 22.5559 212.494 21.6136 211.566 20.9318C210.638 20.25 209.492 19.9091 208.129 19.9091C206.708 19.9091 205.524 20.2689 204.577 20.9886C203.64 21.7083 202.934 22.6742 202.461 23.8864C201.997 25.0985 201.765 26.4432 201.765 27.9205C201.765 29.4356 202.002 30.7756 202.475 31.9403C202.958 33.0956 203.668 34.0047 204.606 34.6676C205.553 35.321 206.727 35.6477 208.129 35.6477ZM232.674 39.4545C230.704 39.4545 228.976 38.9858 227.489 38.0483C226.012 37.1108 224.857 35.7992 224.023 34.1136C223.2 32.428 222.788 30.4583 222.788 28.2045C222.788 25.9318 223.2 23.9479 224.023 22.2528C224.857 20.5578 226.012 19.2415 227.489 18.304C228.976 17.3665 230.704 16.8977 232.674 16.8977C234.644 16.8977 236.367 17.3665 237.844 18.304C239.331 19.2415 240.487 20.5578 241.31 22.2528C242.144 23.9479 242.56 25.9318 242.56 28.2045C242.56 30.4583 242.144 32.428 241.31 34.1136C240.487 35.7992 239.331 37.1108 237.844 38.0483C236.367 38.9858 234.644 39.4545 232.674 39.4545ZM232.674 36.4432C234.17 36.4432 235.401 36.0597 236.367 35.2926C237.333 34.5256 238.048 33.517 238.512 32.267C238.976 31.017 239.208 29.6629 239.208 28.2045C239.208 26.7462 238.976 25.3873 238.512 24.1278C238.048 22.8684 237.333 21.8504 236.367 21.0739C235.401 20.2973 234.17 19.9091 232.674 19.9091C231.178 19.9091 229.947 20.2973 228.981 21.0739C228.015 21.8504 227.3 22.8684 226.836 24.1278C226.372 25.3873 226.14 26.7462 226.14 28.2045C226.14 29.6629 226.372 31.017 226.836 32.267C227.3 33.517 228.015 34.5256 228.981 35.2926C229.947 36.0597 231.178 36.4432 232.674 36.4432ZM256.541 39.4545C254.571 39.4545 252.843 38.9858 251.357 38.0483C249.879 37.1108 248.724 35.7992 247.891 34.1136C247.067 32.428 246.655 30.4583 246.655 28.2045C246.655 25.9318 247.067 23.9479 247.891 22.2528C248.724 20.5578 249.879 19.2415 251.357 18.304C252.843 17.3665 254.571 16.8977 256.541 16.8977C258.511 16.8977 260.234 17.3665 261.712 18.304C263.198 19.2415 264.354 20.5578 265.178 22.2528C266.011 23.9479 266.428 25.9318 266.428 28.2045C266.428 30.4583 266.011 32.428 265.178 34.1136C264.354 35.7992 263.198 37.1108 261.712 38.0483C260.234 38.9858 258.511 39.4545 256.541 39.4545ZM256.541 36.4432C258.037 36.4432 259.268 36.0597 260.234 35.2926C261.2 34.5256 261.915 33.517 262.379 32.267C262.843 31.017 263.075 29.6629 263.075 28.2045C263.075 26.7462 262.843 25.3873 262.379 24.1278C261.915 22.8684 261.2 21.8504 260.234 21.0739C259.268 20.2973 258.037 19.9091 256.541 19.9091C255.045 19.9091 253.814 20.2973 252.848 21.0739C251.882 21.8504 251.167 22.8684 250.703 24.1278C250.239 25.3873 250.007 26.7462 250.007 28.2045C250.007 29.6629 250.239 31.017 250.703 32.267C251.167 33.517 251.882 34.5256 252.848 35.2926C253.814 36.0597 255.045 36.4432 256.541 36.4432ZM279.783 39.4545C277.965 39.4545 276.36 38.9953 274.968 38.0767C273.576 37.1487 272.487 35.8419 271.701 34.1562C270.915 32.4612 270.522 30.4583 270.522 28.1477C270.522 25.8561 270.915 23.8674 271.701 22.1818C272.487 20.4962 273.581 19.1941 274.982 18.2756C276.384 17.357 278.003 16.8977 279.84 16.8977C281.261 16.8977 282.383 17.1345 283.207 17.608C284.04 18.072 284.674 18.6023 285.11 19.1989C285.555 19.786 285.901 20.2689 286.147 20.6477H286.431V9.90909H289.783V39H286.545V35.6477H286.147C285.901 36.0455 285.55 36.5473 285.096 37.1534C284.641 37.75 283.993 38.285 283.15 38.7585C282.307 39.2225 281.185 39.4545 279.783 39.4545ZM280.238 36.4432C281.583 36.4432 282.719 36.0928 283.647 35.392C284.575 34.6818 285.281 33.7017 285.763 32.4517C286.246 31.1922 286.488 29.7386 286.488 28.0909C286.488 26.4621 286.251 25.0369 285.778 23.8153C285.304 22.5843 284.603 21.6278 283.675 20.946C282.747 20.2547 281.602 19.9091 280.238 19.9091C278.817 19.9091 277.634 20.2737 276.687 21.0028C275.749 21.7225 275.044 22.7027 274.57 23.9432C274.106 25.1742 273.874 26.5568 273.874 28.0909C273.874 29.6439 274.111 31.0549 274.585 32.3239C275.067 33.5833 275.778 34.5871 276.715 35.3352C277.662 36.0739 278.836 36.4432 280.238 36.4432ZM315.65 28.7727L297.354 38.0909V34.4545L311.388 27.6932L311.275 27.9205V27.3523L311.388 27.5795L297.354 20.8182V17.1818L315.65 26.5V28.7727Z" fill="#70A033"/>
</svg>
