<svg width="174" height="170" viewBox="0 0 174 170" fill="none" xmlns="http://www.w3.org/2000/svg">
<path d="M84 119C76.9398 118.18 67 112.5 67 112.5L84 126.5V150L88.5 157L92.5 150V126.5L109 112.5C109 112.5 99.3751 118.165 92.5 119C89.2048 119.4 87.2973 119.383 84 119Z" fill="#0E0C0D" stroke="#0E0C0D"/>
<path d="M51.5 70.5002C45.4364 77.0222 33.5 84.5002 33.5 84.5002C33.5 84.5002 40.959 95.5842 46 102.5C56.6338 117.089 65.3522 123.241 75 138.5C80.6965 147.51 88 162.5 88 162.5C88 162.5 95.8581 147.655 101.5 138.5C110.539 123.833 116.196 115.92 127 102.5C132.817 95.2743 142.5 84.5002 142.5 84.5002C142.5 84.5002 132.403 76.6109 127 70.5002C123.12 66.1117 118 58.5002 118 58.5002C118 58.5002 113.849 53.6997 110.5 51.5002C107.285 49.3887 105.181 48.6143 101.5 47.5002C92.903 44.8985 87.2135 45.3203 78.5 47.5002C74.2432 48.5651 71.7028 49.1458 68 51.5002C64.6191 53.6499 60.5 58.5002 60.5 58.5002C60.5 58.5002 55.4886 66.21 51.5 70.5002Z" stroke="#0E0C0D" stroke-width="6"/>
<path d="M32.5 72L7 85.5L32.5 99C32.5 99 50.1762 108.757 59.5 117.5C74.5537 131.616 88 162 88 162C88 162 103.308 131.724 119 117.5C128.47 108.916 146 99 146 99L168 85.5L146 72C146 72 128.449 62.1082 119 53.5C103.106 39.0197 88 8 88 8C88 8 74.7621 39.1238 59.5 53.5C50.1959 62.264 32.5 72 32.5 72Z" stroke="#0E0C0D" stroke-width="6"/>
<ellipse cx="87.5" cy="85.5" rx="23.5" ry="22.5" fill="#0E0C0D"/>
</svg>
